<?xml version="1.0" encoding="UTF-8" standalone="no"?>
<svg
   xmlns:dc="http://purl.org/dc/elements/1.1/"
   xmlns:cc="http://creativecommons.org/ns#"
   xmlns:rdf="http://www.w3.org/1999/02/22-rdf-syntax-ns#"
   xmlns:svg="http://www.w3.org/2000/svg"
   xmlns="http://www.w3.org/2000/svg"
   width="256px"
   height="256px"
   viewBox="0 0 256 256"
   version="1.1"
   id="SVGRoot">
  <defs
     id="defs200">
    <clipPath
       clipPathUnits="userSpaceOnUse"
       id="clipPath78">
      <path
         d="m 736.047,1191.55 -35.168,-10e-4 h -35.162 -0.006 l -17.583,-30.446 0.004,-0.01 -17.583,-30.445 0.003,-0.01 h -0.006 l -17.583,-30.446 0.004,-0.01 -17.585,-30.456 h 35.168 l 17.585,30.455 -0.004,0.01 17.583,30.446 17.579,30.452 h 0.007 35.162 l -17.58,-30.452 -17.585,-30.455 35.168,10e-4 17.579,30.452 17.586,30.456 17.585,30.455 h -35.168 z"
         id="path76" />
    </clipPath>
    <linearGradient
       x1="0"
       y1="0"
       x2="1"
       y2="0"
       gradientUnits="userSpaceOnUse"
       gradientTransform="matrix(-64.852417,-120.04758,-120.04758,64.852417,714.9306,1189.1962)"
       spreadMethod="pad"
       id="linearGradient88">
      <stop
         style="stop-opacity:1;stop-color:#de2626"
         offset="0"
         id="stop84" />
      <stop
         style="stop-opacity:1;stop-color:#e55827"
         offset="1"
         id="stop86" />
    </linearGradient>
    <clipPath
       clipPathUnits="userSpaceOnUse"
       id="clipPath38">
      <path
         d="m 612.967,1039.281 17.585,-30.455 17.58,-30.452 0.006,-0.004 35.158,-0.004 0.004,0.006 35.158,-0.004 0.004,0.006 0.006,-0.003 35.158,-0.005 0.004,0.007 35.168,-0.002 -17.586,30.455 h -35.168 l -0.003,-0.01 h -35.159 -35.162 -0.006 l -17.579,30.452 h 35.162 35.168 l -17.586,30.455 -35.161,-10e-4 -35.168,10e-4 h -35.168 l 17.585,-30.456 z"
         id="path36" />
    </clipPath>
    <linearGradient
       x1="0"
       y1="0"
       x2="1"
       y2="0"
       gradientUnits="userSpaceOnUse"
       gradientTransform="matrix(140.45032,0,0,-140.45032,621.61206,1024.0514)"
       spreadMethod="pad"
       id="linearGradient48">
      <stop
         style="stop-opacity:1;stop-color:#de2626"
         offset="0"
         id="stop44" />
      <stop
         style="stop-opacity:1;stop-color:#e55827"
         offset="1"
         id="stop46" />
    </linearGradient>
    <linearGradient
       x1="0"
       y1="0"
       x2="1"
       y2="0"
       gradientUnits="userSpaceOnUse"
       gradientTransform="matrix(-92.841938,-151.2155,151.2155,-92.841938,255.22642,201.57733)"
       spreadMethod="pad"
       id="linearGradient68">
      <stop
         style="stop-opacity:1;stop-color:#de2626"
         offset="0"
         id="stop64" />
      <stop
         style="stop-opacity:1;stop-color:#e55827"
         offset="1"
         id="stop66" />
    </linearGradient>
    <clipPath
       clipPathUnits="userSpaceOnUse"
       id="clipPath78-3">
      <path
         d="m 736.047,1191.55 -35.168,-10e-4 h -35.162 -0.006 l -17.583,-30.446 0.004,-0.01 -17.583,-30.445 0.003,-0.01 h -0.006 l -17.583,-30.446 0.004,-0.01 -17.585,-30.456 h 35.168 l 17.585,30.455 -0.004,0.01 17.583,30.446 17.579,30.452 h 0.007 35.162 l -17.58,-30.452 -17.585,-30.455 35.168,10e-4 17.579,30.452 17.586,30.456 17.585,30.455 h -35.168 z"
         id="path76-6" />
    </clipPath>
    <linearGradient
       x1="0"
       y1="0"
       x2="1"
       y2="0"
       gradientUnits="userSpaceOnUse"
       gradientTransform="matrix(-64.852417,-120.04758,-120.04758,64.852417,714.9306,1189.1962)"
       spreadMethod="pad"
       id="linearGradient88-7">
      <stop
         style="stop-opacity:1;stop-color:#de2626"
         offset="0"
         id="stop84-5" />
      <stop
         style="stop-opacity:1;stop-color:#e55827"
         offset="1"
         id="stop86-3" />
    </linearGradient>
    <clipPath
       clipPathUnits="userSpaceOnUse"
       id="clipPath58">
      <path
         d="m 806.378,1008.823 17.582,30.457 17.583,30.451 v 0.01 l -17.576,30.451 h -0.007 l -17.575,30.45 h -0.007 v 0.01 l -17.576,30.45 h -0.007 l -17.582,30.457 -17.583,-30.457 17.583,-30.457 h 0.007 l 17.575,-30.45 17.583,-30.451 v -0.01 l -17.583,-30.451 -17.582,30.451 -17.583,30.457 -17.583,-30.457 17.583,-30.451 17.583,-30.457 17.582,-30.457 17.583,30.457 z"
         id="path56" />
    </clipPath>
    <linearGradient
       x1="0"
       y1="0"
       x2="1"
       y2="0"
       gradientUnits="userSpaceOnUse"
       gradientTransform="matrix(-69.631455,113.41163,113.41163,69.631455,813.88232,1029.7795)"
       spreadMethod="pad"
       id="linearGradient68-5">
      <stop
         style="stop-opacity:1;stop-color:#de2626"
         offset="0"
         id="stop64-6" />
      <stop
         style="stop-opacity:1;stop-color:#e55827"
         offset="1"
         id="stop66-2" />
    </linearGradient>
    <clipPath
       clipPathUnits="userSpaceOnUse"
       id="clipPath38-9">
      <path
         d="m 612.967,1039.281 17.585,-30.455 17.58,-30.452 0.006,-0.004 35.158,-0.004 0.004,0.006 35.158,-0.004 0.004,0.006 0.006,-0.003 35.158,-0.005 0.004,0.007 35.168,-0.002 -17.586,30.455 h -35.168 l -0.003,-0.01 h -35.159 -35.162 -0.006 l -17.579,30.452 h 35.162 35.168 l -17.586,30.455 -35.161,-10e-4 -35.168,10e-4 h -35.168 l 17.585,-30.456 z"
         id="path36-1" />
    </clipPath>
    <linearGradient
       x1="0"
       y1="0"
       x2="1"
       y2="0"
       gradientUnits="userSpaceOnUse"
       gradientTransform="matrix(140.45032,0,0,-140.45032,621.61206,1024.0514)"
       spreadMethod="pad"
       id="linearGradient48-2">
      <stop
         style="stop-opacity:1;stop-color:#de2626"
         offset="0"
         id="stop44-7" />
      <stop
         style="stop-opacity:1;stop-color:#e55827"
         offset="1"
         id="stop46-0" />
    </linearGradient>
  </defs>
  <metadata
     id="metadata203">
    <rdf:RDF>
      <cc:Work
         rdf:about="">
        <dc:format>image/svg+xml</dc:format>
        <dc:type
           rdf:resource="http://purl.org/dc/dcmitype/StillImage" />
        <dc:title></dc:title>
      </cc:Work>
    </rdf:RDF>
  </metadata>
  <g
     style="fill:#279ee5;fill-opacity:1"
     transform="matrix(0.97497167,0,0,-0.93811711,-572.48058,1145.8219)"
     id="g34"
     clip-path="url(#clipPath38-9)">
    <g
       style="fill:#279ee5;fill-opacity:1"
       id="g40">
      <g
         style="fill:#279ee5;fill-opacity:1"
         id="g42">
        <path
           d="m 612.967,1039.281 17.585,-30.455 17.58,-30.452 0.006,-0.004 35.158,-0.004 0.004,0.006 35.158,-0.004 0.004,0.006 0.006,-0.003 35.158,-0.005 0.004,0.007 35.168,-0.002 -17.586,30.455 h -35.168 l -0.003,-0.01 h -35.159 -35.162 -0.006 l -17.579,30.452 h 35.162 35.168 l -17.586,30.455 -35.161,-10e-4 -35.168,10e-4 h -35.168 l 17.585,-30.456 z"
           style="fill:#279ee5;fill-opacity:1;stroke:none"
           id="path50" />
      </g>
    </g>
  </g>
  <g
     transform="matrix(0.97497167,0,0,-0.93811711,-572.48058,1145.8219)"
     id="g54"
     clip-path="url(#clipPath58)">
    <g
       id="g60">
      <g
         id="g62">
        <path
           d="m 806.378,1008.823 17.582,30.457 17.583,30.451 v 0.01 l -17.576,30.451 h -0.007 l -17.575,30.45 h -0.007 v 0.01 l -17.576,30.45 h -0.007 l -17.582,30.457 -17.583,-30.457 17.583,-30.457 h 0.007 l 17.575,-30.45 17.583,-30.451 v -0.01 l -17.583,-30.451 -17.582,30.451 -17.583,30.457 -17.583,-30.457 17.583,-30.451 17.583,-30.457 17.582,-30.457 17.583,30.457 z"
           style="fill:#279ee5;fill-opacity:1;stroke:none"
           id="path70" />
      </g>
    </g>
  </g>
  <g
     style="fill:#279ee5;fill-opacity:1"
     transform="matrix(0.97497167,0,0,-0.93811711,-572.48058,1145.8219)"
     id="g74"
     clip-path="url(#clipPath78-3)">
    <g
       style="fill:#279ee5;fill-opacity:1"
       id="g80">
      <g
         style="fill:#279ee5;fill-opacity:1"
         id="g82">
        <path
           d="m 736.047,1191.55 -35.168,-10e-4 h -35.162 -0.006 l -17.583,-30.446 0.004,-0.01 -17.583,-30.445 0.003,-0.01 h -0.006 l -17.583,-30.446 0.004,-0.01 -17.585,-30.456 h 35.168 l 17.585,30.455 -0.004,0.01 17.583,30.446 17.579,30.452 h 0.007 35.162 l -17.58,-30.452 -17.585,-30.455 35.168,10e-4 17.579,30.452 17.586,30.456 17.585,30.455 h -35.168 z"
           style="fill:#279ee5;fill-opacity:1;stroke:none"
           id="path90" />
      </g>
    </g>
  </g>
</svg>
